<?xml version="1.0" encoding="UTF-8" standalone="no"?>
<!-- Created with Inkscape (http://www.inkscape.org/) -->

<svg
   xmlns:dc="http://purl.org/dc/elements/1.1/"
   xmlns:cc="http://creativecommons.org/ns#"
   xmlns:rdf="http://www.w3.org/1999/02/22-rdf-syntax-ns#"
   xmlns:svg="http://www.w3.org/2000/svg"
   xmlns="http://www.w3.org/2000/svg"
   xmlns:xlink="http://www.w3.org/1999/xlink"
   xmlns:sodipodi="http://sodipodi.sourceforge.net/DTD/sodipodi-0.dtd"
   xmlns:inkscape="http://www.inkscape.org/namespaces/inkscape"
   width="602"
   height="602"
   id="svg2"
   version="1.1"
   inkscape:version="0.48.2 r9819"
   sodipodi:docname="Airdrop.svg">
  <defs
     id="defs4">
    <linearGradient
       id="linearGradient3013"
       inkscape:collect="always">
      <stop
         id="stop3015"
         offset="0"
         style="stop-color:#0255fb;stop-opacity:1" />
      <stop
         id="stop3017"
         offset="1"
         style="stop-color:#13ddf5;stop-opacity:1" />
    </linearGradient>
    <linearGradient
       inkscape:collect="always"
       id="linearGradient3915">
      <stop
         style="stop-color:#0081f8;stop-opacity:1;"
         offset="0"
         id="stop3917" />
      <stop
         style="stop-color:#01ddff;stop-opacity:1"
         offset="1"
         id="stop3919" />
    </linearGradient>
    <linearGradient
       id="linearGradient3883">
      <stop
         style="stop-color:#0081f8;stop-opacity:1;"
         offset="0"
         id="stop3885" />
      <stop
         style="stop-color:#0081f8;stop-opacity:0;"
         offset="1"
         id="stop3887" />
    </linearGradient>
    <linearGradient
       id="linearGradient3843">
      <stop
         id="stop3851"
         offset="0"
         style="stop-color:#3d73c3;stop-opacity:1;" />
      <stop
         style="stop-color:#0064f5;stop-opacity:0.37254902;"
         offset="0.25"
         id="stop3857" />
      <stop
         style="stop-color:#0064f5;stop-opacity:0.24705882;"
         offset="0.5"
         id="stop3855" />
      <stop
         style="stop-color:#0064f5;stop-opacity:0;"
         offset="1"
         id="stop3847" />
    </linearGradient>
    <linearGradient
       id="linearGradient3835">
      <stop
         style="stop-color:#ffffff;stop-opacity:1;"
         offset="0"
         id="stop3837" />
      <stop
         style="stop-color:#ffffff;stop-opacity:0;"
         offset="1"
         id="stop3839" />
    </linearGradient>
    <linearGradient
       inkscape:collect="always"
       xlink:href="#linearGradient3915"
       id="linearGradient3921"
       x1="377.88785"
       y1="512.68927"
       x2="378.47192"
       y2="338.63889"
       gradientUnits="userSpaceOnUse" />
    <linearGradient
       inkscape:collect="always"
       xlink:href="#linearGradient3013"
       id="linearGradient3943"
       gradientUnits="userSpaceOnUse"
       x1="305.20093"
       y1="598.59198"
       x2="305.785"
       y2="8.2437592"
       gradientTransform="matrix(0.14136907,0,0,0.14136907,337.18004,424.54219)" />
  </defs>
  <sodipodi:namedview
     id="base"
     pagecolor="#ffffff"
     bordercolor="#666666"
     borderopacity="1.0"
     inkscape:pageopacity="0.0"
     inkscape:pageshadow="2"
     inkscape:zoom="0.42803703"
     inkscape:cx="398.28379"
     inkscape:cy="571.26237"
     inkscape:document-units="px"
     inkscape:current-layer="layer1"
     showgrid="false"
     inkscape:window-width="1366"
     inkscape:window-height="706"
     inkscape:window-x="-8"
     inkscape:window-y="-8"
     inkscape:window-maximized="1" />
  <metadata
     id="metadata7">
    <rdf:RDF>
      <cc:Work
         rdf:about="">
        <dc:format>image/svg+xml</dc:format>
        <dc:type
           rdf:resource="http://purl.org/dc/dcmitype/StillImage" />
        <dc:title />
      </cc:Work>
    </rdf:RDF>
  </metadata>
  <g
     inkscape:label="Calque 1"
     inkscape:groupmode="layer"
     id="layer1"
     transform="translate(0,-450.36218)">
    <g
       id="g3936"
       transform="matrix(7.0736833,0,0,7.0736833,-2385.1048,-2552.715)">
      <g
         id="g3929">
        <path
           id="rect2996"
           d="m 356.7857,424.68359 45.89286,0 c 10.78321,0 19.46429,8.68107 19.46429,19.46429 l 0,45.89286 c 0,10.78322 -8.68108,19.46429 -19.46429,19.46429 l -45.89286,0 c -10.78322,0 -19.46429,-8.68107 -19.46429,-19.46429 l 0,-45.89286 c 0,-10.78322 8.68107,-19.46429 19.46429,-19.46429 z"
           style="color:#000000;fill:url(#linearGradient3943);fill-opacity:1;fill-rule:nonzero;stroke:none;stroke-width:0.10000000000000001;marker:none;visibility:visible;display:inline;overflow:visible;enable-background:accumulate"
           inkscape:connector-curvature="0" />
        <path
           style="color:#000000;fill:#ffffff;fill-opacity:1;fill-rule:nonzero;stroke:none;stroke-width:0.1;marker:none;visibility:visible;display:inline;overflow:visible;enable-background:accumulate"
           d="m 380,430.03125 c -20.49805,0 -37.15625,16.6582 -37.15625,37.15625 0,13.77213 7.53569,25.80111 18.6875,32.21875 l 0.6875,-1.1875 C 351.48616,491.95152 344.125,480.27318 344.125,467.1875 c 0,-19.5128 16.3622,-35.875 35.875,-35.875 19.5128,0 35.875,16.3622 35.875,35.875 0,13.11016 -7.39095,24.80381 -18.15625,31.0625 l 0.6875,1.1875 c 11.18521,-6.40885 18.75,-18.45291 18.75,-32.25 0,-20.49805 -16.6582,-37.15625 -37.15625,-37.15625 z m 0,5.71875 c -17.34526,0 -31.4375,14.09224 -31.4375,31.4375 0,11.65385 6.37706,21.82057 15.8125,27.25 l 0.78125,-1.375 c -8.95618,-5.2465 -15.125,-14.97664 -15.125,-25.875 0,-16.26149 13.70726,-29.96875 29.96875,-29.96875 16.26149,0 29.96875,13.70726 29.96875,29.96875 0,10.9134 -6.17998,20.66496 -15.15625,25.90625 l 0.78125,1.375 c 9.45589,-5.42406 15.84375,-15.61212 15.84375,-27.28125 0,-17.34526 -14.09224,-31.4375 -31.4375,-31.4375 z m 0,6.4375 c -13.79837,0 -25,11.20163 -25,25 0,9.27348 5.05552,17.37191 12.5625,21.6875 l 0.6875,-1.21875 c -7.07398,-4.16872 -11.96875,-11.89204 -11.96875,-20.46875 0,-12.81312 10.90563,-23.71875 23.71875,-23.71875 12.81312,0 23.71875,10.90563 23.71875,23.71875 0,8.57671 -4.89477,16.30003 -11.96875,20.46875 l 0.6875,1.21875 C 399.94448,484.55941 405,476.46098 405,467.1875 c 0,-13.79837 -11.20163,-25 -25,-25 z m 0,6.0625 c -10.44853,0 -18.9375,8.48897 -18.9375,18.9375 0,7.01393 3.82449,13.13348 9.5,16.40625 l 0.71875,-1.25 C 366.03528,479.32083 362.5,473.67325 362.5,467.1875 c 0,-9.66033 7.83967,-17.5 17.5,-17.5 9.66033,0 17.5,7.83967 17.5,17.5 0,6.47992 -3.54308,12.10005 -8.78125,15.125 l 0.71875,1.28125 c 5.67551,-3.27277 9.5,-9.39232 9.5,-16.40625 0,-10.44853 -8.48897,-18.9375 -18.9375,-18.9375 z m 0,6.25 c -7.00016,0 -12.6875,5.68734 -12.6875,12.6875 0,4.68327 2.56248,8.77064 6.34375,10.96875 l 0.71875,-1.21875 c -3.36284,-1.94546 -5.625,-5.58677 -5.625,-9.75 0,-6.21169 5.03831,-11.25 11.25,-11.25 6.21169,0 11.25,5.03831 11.25,11.25 0,4.13791 -2.23346,7.76472 -5.5625,9.71875 l 0.6875,1.25 c 3.76851,-2.20135 6.3125,-6.29504 6.3125,-10.96875 0,-7.00016 -5.68734,-12.6875 -12.6875,-12.6875 z m 0,5.71875 c -3.84627,0 -6.96875,3.12248 -6.96875,6.96875 0,2.571 1.39484,4.82345 3.46875,6.03125 l 0.71875,-1.25 c -1.63889,-0.95949 -2.75,-2.74306 -2.75,-4.78125 0,-3.05729 2.47396,-5.53125 5.53125,-5.53125 3.05729,0 5.53125,2.47396 5.53125,5.53125 0,2.01384 -1.08101,3.7827 -2.6875,4.75 l 0.71875,1.21875 c 2.03406,-1.21757 3.40625,-3.42768 3.40625,-5.96875 0,-3.84627 -3.12248,-6.96875 -6.96875,-6.96875 z m -0.34375,5.6875 c -0.59883,0.12254 -1.03125,0.67744 -1.03125,1.3125 0,0.72578 0.58672,1.3125 1.3125,1.3125 0.72578,0 1.3125,-0.58672 1.3125,-1.3125 0,-0.72578 -0.58672,-1.3125 -1.3125,-1.3125 -0.0907,0 -0.1957,-0.0175 -0.28125,0 z"
           id="path3002"
           inkscape:connector-curvature="0" />
      </g>
    </g>
  </g>
</svg>
